<svg width="38" height="38" viewBox="0 0 38 38" fill="none" xmlns="http://www.w3.org/2000/svg">
<path d="M14.992 9.87578e-07C12.6455 0.00125515 10.3321 0.552967 8.23767 1.61079C6.14321 2.66862 4.32612 4.20305 2.93246 6.09077C1.5388 7.97848 0.607427 10.1668 0.213212 12.4799C-0.181004 14.793 -0.0270713 17.1663 0.662638 19.4091C1.35235 21.6519 2.55859 23.7016 4.18443 25.3934C5.81026 27.0853 7.81034 28.3722 10.0239 29.1506C12.2375 29.929 14.6028 30.1772 16.9297 29.8754C19.2566 29.5735 21.4803 28.7299 23.422 27.4125L32.692 36.675C32.9495 36.9513 33.26 37.173 33.605 37.3267C33.95 37.4804 34.3224 37.5631 34.7 37.5697C35.0777 37.5764 35.4528 37.5069 35.803 37.3655C36.1532 37.224 36.4713 37.0135 36.7384 36.7464C37.0054 36.4793 37.216 36.1612 37.3574 35.811C37.4989 35.4608 37.5684 35.0857 37.5617 34.708C37.555 34.3304 37.4724 33.958 37.3187 33.613C37.1649 33.268 36.9433 32.9575 36.667 32.7L27.4045 23.43C28.9369 21.1747 29.8255 18.5443 29.9749 15.8218C30.1243 13.0992 29.5287 10.3874 28.2523 7.97798C26.9758 5.56855 25.0668 3.55262 22.7304 2.14694C20.394 0.74126 17.7186 -0.00098828 14.992 9.87578e-07ZM5.61698 15C5.61698 12.5136 6.6047 10.129 8.36286 8.37088C10.121 6.61272 12.5056 5.625 14.992 5.625C17.4784 5.625 19.863 6.61272 21.6211 8.37088C23.3793 10.129 24.367 12.5136 24.367 15C24.367 17.4864 23.3793 19.871 21.6211 21.6291C19.863 23.3873 17.4784 24.375 14.992 24.375C12.5056 24.375 10.121 23.3873 8.36286 21.6291C6.6047 19.871 5.61698 17.4864 5.61698 15Z" fill="#FE679C"/>
</svg>
